<svg width="23" height="23" viewBox="0 0 23 23" fill="none" xmlns="http://www.w3.org/2000/svg">
<path d="M11.6786 22.1784C17.5763 22.1784 22.3571 17.3976 22.3571 11.4999C22.3571 5.60225 17.5763 0.821289 11.6786 0.821289C5.78096 0.821289 1 5.60225 1 11.4999C1 17.3976 5.78096 22.1784 11.6786 22.1784Z" stroke="black" stroke-linecap="round" stroke-linejoin="round"/>
<path d="M9.21436 16.4287H14.1429" stroke="black" stroke-linecap="round" stroke-linejoin="round"/>
<path d="M11.6785 16.4287V10.6787H10.0356" stroke="black" stroke-linecap="round" stroke-linejoin="round"/>
<path d="M11.6788 6.98158C11.452 6.98158 11.2681 6.7977 11.2681 6.57087C11.2681 6.34404 11.452 6.16016 11.6788 6.16016" stroke="black" stroke-linecap="round" stroke-linejoin="round"/>
<path d="M11.6787 6.98158C11.9055 6.98158 12.0894 6.7977 12.0894 6.57087C12.0894 6.34404 11.9055 6.16016 11.6787 6.16016" stroke="black" stroke-linecap="round" stroke-linejoin="round"/>
</svg>
