<svg width="23" height="23" viewBox="0 0 23 23" fill="none" xmlns="http://www.w3.org/2000/svg">
<path d="M8.21415 20.1089L0.821289 22.1789L2.89129 14.786L16.4284 1.31461C16.5814 1.15813 16.7642 1.0338 16.9658 0.94892C17.1676 0.864037 17.3842 0.820312 17.6031 0.820312C17.8219 0.820312 18.0386 0.864037 18.2403 0.94892C18.4419 1.0338 18.6248 1.15813 18.7777 1.31461L21.6856 4.23889C21.8395 4.39161 21.9617 4.57333 22.0452 4.77351C22.1287 4.97371 22.1715 5.18845 22.1715 5.40532C22.1715 5.62219 22.1287 5.83693 22.0452 6.03713C21.9617 6.23733 21.8395 6.41903 21.6856 6.57175L8.21415 20.1089Z" stroke="#124E91" stroke-linecap="round" stroke-linejoin="round"/>
</svg>
