<svg width="23" height="23" viewBox="0 0 23 23" fill="none" xmlns="http://www.w3.org/2000/svg">
<path d="M1.64285 5.75H21.3571" stroke="#DC3545" stroke-linecap="round" stroke-linejoin="round"/>
<path d="M4.10713 5.75H18.8928V20.5357C18.8928 20.9714 18.7197 21.3893 18.4117 21.6974C18.1036 22.0054 17.6857 22.1786 17.25 22.1786H5.74999C5.31427 22.1786 4.89641 22.0054 4.58831 21.6974C4.28022 21.3893 4.10713 20.9714 4.10713 20.5357V5.75Z" stroke="#DC3545" stroke-linecap="round" stroke-linejoin="round"/>
<path d="M7.39285 5.75001V4.92858C7.39285 3.8393 7.82557 2.79463 8.5958 2.02439C9.36604 1.25416 10.4107 0.821442 11.5 0.821442C12.5893 0.821442 13.634 1.25416 14.4042 2.02439C15.1744 2.79463 15.6071 3.8393 15.6071 4.92858V5.75001" stroke="#DC3545" stroke-linecap="round" stroke-linejoin="round"/>
<path d="M9.03571 10.681V17.2549" stroke="#DC3545" stroke-linecap="round" stroke-linejoin="round"/>
<path d="M13.9643 10.681V17.2549" stroke="#DC3545" stroke-linecap="round" stroke-linejoin="round"/>
</svg>
